<svg width="201" height="101" viewBox="0 0 201 101" fill="none" xmlns="http://www.w3.org/2000/svg">
<path d="M53.4352 63.387V39.4111H57.475V63.387H53.4352Z" fill="#242526"/>
<path d="M60.3022 54.4995C60.3022 51.8053 61.1433 49.6511 62.7929 48.0015C64.4777 46.352 66.5967 45.5435 69.1904 45.5435C71.6485 45.5435 73.6698 46.352 75.219 48.0015C76.8007 49.6511 77.5767 51.6724 77.5767 54.0952C77.5767 54.5998 77.5441 55.0719 77.5088 55.5088H64.3095C64.4452 58.2029 66.4312 59.9528 69.4265 59.9528C71.1764 59.9528 72.6931 59.3125 74.0062 57.9994L76.4317 60.3571C74.5136 62.3784 72.1559 63.3876 69.2935 63.3876C66.6347 63.3876 64.4452 62.5791 62.7956 60.9974C61.146 59.4156 60.305 57.294 60.305 54.6324V54.4995H60.3022ZM73.469 52.6817C73.469 51.6724 73.0322 50.7961 72.1884 50.0879C71.3474 49.3473 70.3706 48.9756 69.1904 48.9756C67.9451 48.9756 66.8327 49.3473 65.9238 50.0527C65.0149 50.7608 64.5103 51.6344 64.4072 52.679H73.469V52.6817Z" fill="#242526"/>
<path d="M79.5298 54.399C79.5298 51.8731 80.4387 49.7189 82.2239 48.0015C84.0091 46.2841 86.1986 45.4077 88.7897 45.4077C91.3834 45.4077 93.5702 46.2841 95.3554 48.0015C97.1407 49.7189 98.0495 51.8731 98.0495 54.399C98.0495 56.9249 97.1407 59.0791 95.3554 60.7965C93.5702 62.5139 91.3807 63.3903 88.7897 63.3903C86.1959 63.3903 84.0091 62.5139 82.2239 60.7965C80.4387 59.0791 79.5298 56.9222 79.5298 54.399ZM92.5283 58.2028C93.5376 57.1582 94.0423 55.9129 94.0423 54.399C94.0423 52.8851 93.5376 51.637 92.5283 50.6278C91.5191 49.5832 90.271 49.0786 88.7897 49.0786C87.273 49.0786 86.0277 49.5832 85.0184 50.6278C84.0417 51.637 83.5371 52.8851 83.5371 54.399C83.5371 55.9156 84.0417 57.161 85.0184 58.2028C86.0277 59.2121 87.2757 59.7194 88.7897 59.7194C90.271 59.7194 91.5191 59.2121 92.5283 58.2028Z" fill="#242526"/>
<path d="M100.88 63.3871V46.4165H104.887V48.842C105.695 47.1925 107.613 46.0801 110.039 46.0801C114.079 46.0801 116.472 48.6738 116.472 52.8819V63.3871H112.432V53.4543C112.432 51.1319 111.086 49.6831 108.829 49.6831C106.539 49.6831 104.89 51.3001 104.89 53.6225V63.3871H100.88V63.3871Z" fill="#242526"/>
<path d="M133.038 48.5063V46.0482H137.078V63.0188H133.038V60.5607C132.466 62.2102 130.412 63.3905 127.617 63.3905C125.227 63.3905 123.206 62.5494 121.556 60.8645C119.939 59.1471 119.131 57.0607 119.131 54.5348C119.131 52.0089 119.939 49.9225 121.556 48.2377C123.206 46.5203 125.227 45.6792 127.617 45.6792C130.412 45.6765 132.466 46.854 133.038 48.5063ZM131.825 58.2355C132.835 57.2588 133.342 56.0135 133.342 54.5321C133.342 53.0508 132.837 51.8054 131.825 50.8287C130.849 49.852 129.603 49.3473 128.154 49.3473C126.706 49.3473 125.528 49.852 124.551 50.8287C123.61 51.8054 123.138 53.0508 123.138 54.5321C123.138 56.0135 123.61 57.2588 124.551 58.2355C125.528 59.2122 126.706 59.7169 128.154 59.7169C129.603 59.7196 130.849 59.2122 131.825 58.2355Z" fill="#242526"/>
<path d="M140.58 63.3871V46.4165H144.588V48.9424C145.396 47.1572 147.247 46.0801 149.64 46.0801C150.112 46.0801 150.516 46.1126 150.852 46.1805V50.0874C150.348 49.987 149.775 49.9191 149.167 49.9191C146.373 49.9191 144.588 51.6691 144.588 54.4663V63.3898H140.58V63.3871Z" fill="#242526"/>
<path d="M165.769 48.5067V39.415H169.809V63.0192H165.769V60.5611C165.197 62.2107 163.143 63.3909 160.348 63.3909C157.958 63.3909 155.937 62.5498 154.287 60.865C152.67 59.1476 151.862 57.0612 151.862 54.5353C151.862 52.0093 152.67 49.9229 154.287 48.2381C155.937 46.5207 157.958 45.6796 160.348 45.6796C163.143 45.6769 165.197 46.8544 165.769 48.5067ZM164.556 58.236C165.566 57.2592 166.073 56.0139 166.073 54.5325C166.073 53.0512 165.568 51.8059 164.556 50.8291C163.58 49.8524 162.334 49.3478 160.886 49.3478C159.437 49.3478 158.259 49.8524 157.283 50.8291C156.341 51.8059 155.869 53.0512 155.869 54.5325C155.869 56.0139 156.341 57.2592 157.283 58.236C158.259 59.2127 159.437 59.7173 160.886 59.7173C162.334 59.72 163.58 59.2127 164.556 58.236Z" fill="#242526"/>
<path d="M172.603 54.399C172.603 51.8731 173.512 49.7189 175.297 48.0015C177.083 46.2841 179.272 45.4077 181.863 45.4077C184.457 45.4077 186.644 46.2841 188.429 48.0015C190.214 49.7189 191.123 51.8731 191.123 54.399C191.123 56.9249 190.214 59.0791 188.429 60.7965C186.644 62.5139 184.454 63.3903 181.863 63.3903C179.269 63.3903 177.083 62.5139 175.297 60.7965C173.512 59.0791 172.603 56.9222 172.603 54.399ZM185.602 58.2028C186.611 57.1582 187.118 55.9129 187.118 54.399C187.118 52.8851 186.614 51.637 185.602 50.6278C184.593 49.5832 183.347 49.0786 181.863 49.0786C180.347 49.0786 179.101 49.5832 178.092 50.6278C177.115 51.637 176.611 52.8851 176.611 54.399C176.611 55.9156 177.115 57.161 178.092 58.2028C179.101 59.2121 180.347 59.7194 181.863 59.7194C183.347 59.7194 184.593 59.2121 185.602 58.2028Z" fill="#242526"/>
<path d="M25.2213 71.4255L17.9986 67.2435L25.2213 63.0616L35.3655 57.1577V51.5817L42.5881 55.7637V61.3396L25.2213 71.4255ZM25.2213 45.5958L30.0905 48.4658V54.1237L25.2213 56.9117L20.352 54.1237V48.4658L25.2213 45.5958ZM42.507 41.0859V49.5318L35.2843 45.3498L26.6009 40.2659L26.5197 40.1839L25.2213 39.3639L20.352 42.1519V33.788L25.2213 31L42.507 41.0859ZM7.85437 41.0859L15.077 36.9039V45.2678V55.5997V57.1577L19.9463 59.9456L12.7236 64.1276L7.85437 61.3396V41.0859Z" fill="#EF1B34"/>
</svg>
